<svg xmlns="http://www.w3.org/2000/svg" viewBox="0 0 64 80" x="0px" y="0px"><g><polygon points="27.015 7 32 9.848 36.985 7 32 4.152 27.015 7"/><polygon points="16 42.723 11 45.58 11 51.277 16 48.42 16 42.723"/><polygon points="14.985 41 10 38.152 5.015 41 10 43.848 14.985 41"/><polygon points="38 14.42 38 8.723 33 11.58 33 17.277 38 14.42"/><polygon points="27.015 28 32 30.848 36.985 28 32 25.152 27.015 28"/><polygon points="16 22.42 16 16.723 11 19.58 11 25.277 16 22.42"/><polygon points="4 22.42 9 25.277 9 19.58 4 16.723 4 22.42"/><polygon points="5.015 15 10 17.848 14.985 15 10 12.152 5.015 15"/><polygon points="38 35.42 38 29.723 33 32.58 33 38.277 38 35.42"/><polygon points="9 45.58 4 42.723 4 48.42 9 51.277 9 45.58"/><polygon points="53 45.58 48 42.723 48 48.42 53 51.277 53 45.58"/><polygon points="60 22.42 60 16.723 55 19.58 55 25.277 60 22.42"/><polygon points="48 22.42 53 25.277 53 19.58 48 16.723 48 22.42"/><polygon points="60 42.723 55 45.58 55 51.277 60 48.42 60 42.723"/><polygon points="58.985 41 54 38.152 49.015 41 54 43.848 58.985 41"/><polygon points="36.985 49 32 46.152 27.015 49 32 51.848 36.985 49"/><polygon points="31 53.58 26 50.723 26 56.42 31 59.277 31 53.58"/><polygon points="26 14.42 31 17.277 31 11.58 26 8.723 26 14.42"/><polygon points="26 35.42 31 38.277 31 32.58 26 29.723 26 35.42"/><polygon points="49.015 15 54 17.848 58.985 15 54 12.152 49.015 15"/><polygon points="38 50.723 33 53.58 33 59.277 38 56.42 38 50.723"/><polygon points="32 20 31 19.429 31 21 31 23.571 32 23 33 23.571 33 19.429 32 20"/><polygon points="18 17.382 18 19.618 24 15.983 24 13.68 18 17.382"/><polygon points="46 17.382 46 19.618 40 15.983 40 13.68 46 17.382"/><polygon points="18 50.618 18 48.382 24 52.017 24 54.32 18 50.618"/><polygon points="46 50.618 46 48.382 40 52.017 40 54.32 46 50.618"/><polygon points="32 41 31 40.429 31 42 31 44.571 32 44 33 44.571 33 40.429 32 41"/><polygon points="54 28 53 27.429 53 29 53 36.571 54 36 55 36.571 55 27.429 54 28"/><polygon points="10 28 11 27.429 11 29 11 36.571 10 36 9 36.571 9 27.429 10 28"/></g><text x="0" y="79" fill="#000000" font-size="5px" font-weight="bold" font-family="'Helvetica Neue', Helvetica, Arial-Unicode, Arial, Sans-serif">Created by Sarote Impheng</text><text x="0" y="84" fill="#000000" font-size="5px" font-weight="bold" font-family="'Helvetica Neue', Helvetica, Arial-Unicode, Arial, Sans-serif">from the Noun Project</text></svg>